<?xml version="1.0" encoding="UTF-8"?>
<svg width="109px" height="50px" viewBox="0 0 109 50" version="1.1" xmlns="http://www.w3.org/2000/svg" xmlns:xlink="http://www.w3.org/1999/xlink">
    <title>Group 20</title>
    <defs>
        <polygon id="path-1" points="0 49.486 108.13 49.486 108.13 0 0 0"></polygon>
    </defs>
    <g id="Symbols" stroke="none" stroke-width="1" fill="none" fill-rule="evenodd">
        <g id="header-/-dark" transform="translate(-35.000000, -21.000000)">
            <g id="Group-20" transform="translate(35.000000, 21.000000)">
                <path d="M33.7148,22.6563 C34.0708,22.4043 34.5008,22.2793 34.9368,22.2993 C35.3568,22.2953 35.7658,22.4393 36.0918,22.7053 C36.4468,22.9923 36.6988,23.3863 36.8108,23.8293 L39.1338,23.2113 C38.9588,22.3043 38.4508,21.4963 37.7098,20.9463 C36.9078,20.3733 35.9388,20.0813 34.9538,20.1153 C34.0898,20.0943 33.2378,20.3143 32.4928,20.7503 C31.8038,21.1713 31.2458,21.7763 30.8808,22.4973 C30.4898,23.2783 30.2938,24.1433 30.3088,25.0163 C30.2948,25.8823 30.4828,26.7403 30.8588,27.5213 C31.2098,28.2433 31.7588,28.8523 32.4418,29.2753 C33.1898,29.7213 34.0488,29.9443 34.9198,29.9203 C35.8878,29.9533 36.8398,29.6733 37.6358,29.1213 C38.3878,28.5613 38.9188,27.7543 39.1338,26.8413 L36.7418,26.3533 C36.6368,26.7483 36.4228,27.1073 36.1238,27.3863 C35.7798,27.6503 35.3518,27.7783 34.9198,27.7483 C34.2938,27.7863 33.6918,27.5023 33.3238,26.9953 C32.9438,26.4163 32.7558,25.7323 32.7868,25.0413 C32.7788,24.5693 32.8538,24.0993 33.0088,23.6533 C33.1398,23.2653 33.3828,22.9253 33.7078,22.6763" id="Fill-1" fill="#004899"></path>
                <mask id="mask-2" fill="white">
                    <use xlink:href="#path-1"></use>
                </mask>
                <g id="Clip-4"></g>
                <polygon id="Fill-3" fill="#004899" mask="url(#mask-2)" points="41.025 29.661 43.363 29.661 43.363 17.792 41.025 17.792"></polygon>
                <polygon id="Fill-5" fill="#004899" mask="url(#mask-2)" points="46.117 29.661 48.455 29.661 48.455 20.372 46.117 20.372"></polygon>
                <path d="M61.341,20.1495 C60.752,20.1425 60.171,20.2825 59.65,20.5575 C59.181,20.8105 58.783,21.1795 58.495,21.6275 C58.282,21.2215 57.974,20.8735 57.595,20.6135 C57.057,20.2845 56.433,20.1225 55.802,20.1495 C55.2,20.1395 54.606,20.2855 54.077,20.5725 C53.692,20.7895 53.353,21.0825 53.083,21.4325 L53.083,20.3715 L51.018,20.3715 L51.018,29.6565 L53.376,29.6565 L53.376,24.0365 C53.355,23.5625 53.513,23.0975 53.818,22.7345 C54.446,22.0785 55.487,22.0565 56.143,22.6845 C56.16,22.7005 56.177,22.7175 56.193,22.7345 C56.505,23.1435 56.66,23.6525 56.628,24.1665 L56.628,29.6615 L58.966,29.6615 L58.966,24.0415 C58.96,23.7165 59.029,23.3945 59.169,23.1005 C59.293,22.8405 59.488,22.6195 59.731,22.4635 C59.989,22.3055 60.288,22.2255 60.591,22.2335 C61.048,22.2115 61.49,22.3995 61.791,22.7445 C62.102,23.1545 62.256,23.6625 62.225,24.1765 L62.225,29.6615 L64.564,29.6615 L64.564,23.5535 C64.605,22.6605 64.316,21.7835 63.753,21.0905 C63.21,20.4635 62.409,20.1485 61.348,20.1475" id="Fill-6" fill="#004899" mask="url(#mask-2)"></path>
                <path d="M74.2098,21.7914 C73.9058,21.1924 73.3918,20.7264 72.7658,20.4814 C72.0668,20.2194 71.3248,20.0924 70.5788,20.1054 C69.4618,20.1054 68.5788,20.3494 67.9308,20.8384 C67.2938,21.3044 66.8278,21.9664 66.6038,22.7224 L68.7198,23.3944 C68.8418,23.0004 69.1258,22.6774 69.5018,22.5074 C69.8388,22.3514 70.2048,22.2684 70.5768,22.2634 C71.1968,22.2634 71.6368,22.3924 71.9008,22.6494 C72.1128,22.8954 72.2368,23.2064 72.2528,23.5314 L71.1528,23.6944 C70.5518,23.7824 70.0118,23.8784 69.5378,23.9754 C69.1228,24.0564 68.7148,24.1674 68.3168,24.3104 C67.8778,24.4584 67.4728,24.6904 67.1238,24.9944 C66.8378,25.2524 66.6188,25.5744 66.4838,25.9354 C66.3478,26.3124 66.2808,26.7114 66.2858,27.1124 C66.2808,27.6084 66.4038,28.0964 66.6428,28.5304 C66.8888,28.9634 67.2528,29.3184 67.6938,29.5514 C68.2148,29.8224 68.7968,29.9544 69.3848,29.9344 C70.0718,29.9604 70.7538,29.8164 71.3728,29.5174 C71.8258,29.2544 72.2238,28.9084 72.5488,28.4984 L72.5488,29.6754 L74.5958,29.6754 L74.5958,23.9854 C74.5958,23.5604 74.5788,23.1764 74.5448,22.8344 C74.5048,22.4724 74.3938,22.1204 74.2168,21.8014 M72.0208,26.8414 C71.9258,27.0204 71.8058,27.1854 71.6638,27.3304 C71.4628,27.5464 71.2248,27.7234 70.9598,27.8534 C70.6198,28.0134 70.2468,28.0914 69.8708,28.0804 C69.6338,28.0854 69.3978,28.0444 69.1768,27.9584 C68.9948,27.8894 68.8378,27.7684 68.7248,27.6114 C68.6148,27.4504 68.5598,27.2584 68.5658,27.0644 C68.5588,26.9144 68.5898,26.7664 68.6538,26.6314 C68.7298,26.4944 68.8358,26.3754 68.9638,26.2844 C69.1348,26.1614 69.3218,26.0624 69.5188,25.9894 C69.7458,25.9054 69.9788,25.8364 70.2148,25.7814 C70.4788,25.7174 70.8258,25.6494 71.2558,25.5714 L72.2478,25.4004 C72.2478,25.5634 72.2358,25.7424 72.2238,25.9494 C72.2118,26.2554 72.1388,26.5544 72.0108,26.8314" id="Fill-7" fill="#004899" mask="url(#mask-2)"></path>
                <path d="M79.7121,17.7918 L77.3711,17.7918 L77.3711,20.3718 L75.7911,20.3718 L75.7911,22.1798 L77.3711,22.1798 L77.3711,25.7228 C77.3711,26.2778 77.3711,26.7778 77.3881,27.2158 C77.4061,27.6698 77.5301,28.1128 77.7501,28.5108 C77.9971,28.9528 78.3871,29.2978 78.8571,29.4878 C79.3821,29.6978 79.9421,29.8098 80.5091,29.8148 C81.1411,29.8268 81.7731,29.7728 82.3951,29.6538 L82.3951,27.6998 C81.8961,27.7708 81.3921,27.7938 80.8901,27.7678 C80.4911,27.7678 80.1201,27.5678 79.9001,27.2348 C79.7821,27.0228 79.7221,26.7838 79.7271,26.5408 C79.7171,26.2528 79.7121,25.9268 79.7121,25.5638 L79.7121,22.1798 L82.4001,22.1798 L82.4001,20.3718 L79.7121,20.3718 L79.7121,17.7918 Z" id="Fill-8" fill="#004899" mask="url(#mask-2)"></path>
                <path d="M91.3396,25.664 L92.4686,25.664 C92.5796,24.673 92.4616,23.67 92.1236,22.732 C91.8316,21.946 91.3026,21.271 90.6086,20.799 C89.8696,20.324 89.0036,20.084 88.1246,20.11 C87.2686,20.092 86.4236,20.308 85.6806,20.733 C84.9796,21.15 84.4076,21.754 84.0296,22.478 C83.6116,23.297 83.4046,24.207 83.4256,25.126 C83.4096,25.994 83.6236,26.851 84.0466,27.609 C84.4486,28.321 85.0406,28.907 85.7566,29.302 C86.5276,29.724 87.3946,29.936 88.2736,29.918 C89.1476,29.923 90.0056,29.679 90.7456,29.214 C91.4946,28.748 92.0746,28.053 92.3996,27.233 L90.0616,26.563 C89.9066,26.922 89.6456,27.226 89.3146,27.433 C88.9576,27.642 88.5496,27.746 88.1366,27.733 C87.5026,27.775 86.8866,27.511 86.4796,27.022 C86.2016,26.622 86.0326,26.155 85.9916,25.669 L91.3466,25.669 L91.3396,25.664 Z M88.2266,22.146 C88.9076,22.146 89.3966,22.353 89.6926,22.769 C89.9146,23.12 90.0486,23.52 90.0836,23.934 L86.0156,23.934 C86.0856,23.551 86.2396,23.187 86.4676,22.871 C86.8416,22.383 87.4306,22.138 88.2266,22.138 L88.2266,22.146 Z" id="Fill-9" fill="#004899" mask="url(#mask-2)"></path>
                <path d="M106.6639,26.9614 C106.7129,26.7344 106.7409,26.5044 106.7469,26.2724 C106.7469,25.9934 106.7619,25.7304 106.7619,25.4754 L106.7619,23.2114 L104.8069,23.2114 L104.8069,25.2414 L102.1099,22.7224 L101.6669,22.3094 C101.5269,22.1774 101.4099,22.0624 101.3159,21.9644 C101.1899,21.8274 101.0749,21.6804 100.9709,21.5254 C100.8629,21.3444 100.8109,21.1344 100.8219,20.9244 C100.8129,20.6784 100.8739,20.4354 100.9979,20.2224 C101.1329,20.0214 101.3239,19.8634 101.5479,19.7684 C101.8079,19.6534 102.0889,19.5964 102.3739,19.6024 C102.5789,19.6034 102.7839,19.6274 102.9839,19.6734 C103.1929,19.7204 103.3819,19.8284 103.5289,19.9834 C103.6939,20.1484 103.8139,20.3524 103.8759,20.5774 L106.1039,20.1324 C106.0339,19.8444 105.9289,19.5654 105.7919,19.3014 C105.6509,19.0324 105.4719,18.7854 105.2589,18.5684 C104.9159,18.1904 104.4809,17.9074 103.9959,17.7474 C103.4929,17.5814 102.9669,17.4984 102.4369,17.5034 C102.1589,17.5034 101.8799,17.5194 101.6039,17.5524 C101.3139,17.5854 101.0279,17.6514 100.7539,17.7504 C100.1019,17.9674 99.5389,18.3904 99.1479,18.9544 C98.7549,19.5214 98.5499,20.1954 98.5599,20.8854 C98.5519,21.2804 98.6269,21.6734 98.7819,22.0384 C98.9519,22.4064 99.1769,22.7464 99.4489,23.0474 L99.1359,23.3064 C99.0299,23.3994 98.9299,23.5014 98.8379,23.6094 C98.5509,23.9464 98.3349,24.3374 98.2029,24.7604 C97.9179,25.6354 97.9309,26.5804 98.2399,27.4474 C98.5979,28.4494 99.4059,29.2254 100.4209,29.5414 C101.0289,29.7434 101.6649,29.8434 102.3049,29.8395154 C102.5029,29.8395154 102.6989,29.8395154 102.8919,29.8224 C103.0849,29.8054 103.2949,29.7904 103.5269,29.7594 C103.8979,29.6954 104.2589,29.5834 104.6019,29.4264 C104.9659,29.2614 105.3039,29.0454 105.6059,28.7844 L106.6959,29.8224 L108.1299,28.2884 L106.6639,26.9614 Z M103.5929,27.5014 C103.4359,27.5694 103.2719,27.6184 103.1039,27.6484 C102.8699,27.6924 102.6319,27.7144 102.3929,27.7144 C102.0619,27.7094 101.7329,27.6594 101.4159,27.5644 C101.1059,27.4914 100.8269,27.3194 100.6219,27.0764 C100.5139,26.9294 100.4249,26.7704 100.3549,26.6024 C100.2759,26.4074 100.2379,26.1994 100.2429,25.9894 C100.2399,25.8074 100.2659,25.6254 100.3189,25.4514 C100.3869,25.1904 100.5419,24.9604 100.7589,24.7994 C100.8539,24.7254 100.9579,24.6644 101.0689,24.6184 L103.9739,27.2914 C103.8519,27.3784 103.7199,27.4514 103.5809,27.5084 L103.5929,27.5014 Z" id="Fill-10" fill="#004899" mask="url(#mask-2)"></path>
                <path d="M33.7148,38.3593 C34.0708,38.1073 34.5008,37.9823 34.9368,38.0023 C35.3578,37.9993 35.7668,38.1423 36.0948,38.4083 C36.4478,38.6973 36.6988,39.0923 36.8108,39.5343 L39.1508,38.9143 C38.9788,38.0063 38.4698,37.1973 37.7268,36.6493 C36.9248,36.0763 35.9558,35.7843 34.9708,35.8183 C34.1018,35.7913 33.2428,36.0093 32.4928,36.4483 C31.8038,36.8683 31.2448,37.4723 30.8808,38.1933 C30.4898,38.9753 30.2938,39.8403 30.3088,40.7143 C30.2948,41.5803 30.4828,42.4363 30.8588,43.2163 C31.2108,43.9393 31.7588,44.5473 32.4418,44.9713 C33.1898,45.4163 34.0488,45.6403 34.9198,45.6163 C35.8878,45.6483 36.8418,45.3683 37.6388,44.8173 C38.3898,44.2563 38.9188,43.4493 39.1338,42.5373 L36.7418,42.0483 C36.6368,42.4433 36.4228,42.8003 36.1238,43.0793 C35.7798,43.3433 35.3518,43.4723 34.9198,43.4413 C34.2938,43.4803 33.6918,43.1963 33.3238,42.6883 C32.9438,42.1103 32.7558,41.4263 32.7868,40.7343 C32.7798,40.2613 32.8558,39.7913 33.0088,39.3443 C33.1408,38.9573 33.3838,38.6173 33.7078,38.3663" id="Fill-11" fill="#94FF85" mask="url(#mask-2)"></path>
                <path d="M47.2555,36.4315 C45.7285,35.5985 43.8835,35.5985 42.3565,36.4315 C41.6555,36.8365 41.0815,37.4285 40.6975,38.1415 C40.2825,38.9295 40.0755,39.8095 40.0945,40.6995 C40.0715,41.5835 40.2685,42.4585 40.6685,43.2455 C41.0455,43.9645 41.6165,44.5645 42.3155,44.9785 C43.8475,45.8145 45.6995,45.8145 47.2315,44.9785 C47.9355,44.5685 48.5105,43.9685 48.8905,43.2485 C49.6845,41.6445 49.6845,39.7625 48.8905,38.1585 C48.5105,37.4385 47.9375,36.8375 47.2355,36.4245 M46.4585,42.6695 C46.0875,43.1775 45.5285,43.4315 44.7755,43.4315 C44.1375,43.4725 43.5195,43.1985 43.1215,42.6985 C42.7175,42.1185 42.5195,41.4205 42.5575,40.7145 C42.5495,40.2305 42.6325,39.7485 42.8015,39.2955 C42.9435,38.9105 43.1995,38.5785 43.5345,38.3425 C43.9065,38.0995 44.3455,37.9785 44.7905,37.9975 C45.4345,37.9535 46.0595,38.2265 46.4635,38.7305 C46.8655,39.3095 47.0625,40.0045 47.0255,40.7075 C47.0565,41.4015 46.8625,42.0865 46.4735,42.6615" id="Fill-12" fill="#94FF85" mask="url(#mask-2)"></path>
                <path d="M61.6855,35.8452 C61.0965,35.8372 60.5145,35.9792 59.9945,36.2552 C59.5245,36.5082 59.1275,36.8762 58.8395,37.3262 C58.6285,36.9172 58.3195,36.5682 57.9395,36.3092 C57.4015,35.9802 56.7775,35.8182 56.1465,35.8452 C55.5445,35.8372 54.9515,35.9822 54.4215,36.2682 C54.0355,36.4862 53.6975,36.7792 53.4275,37.1302 L53.4275,36.0672 L51.3655,36.0672 L51.3655,45.3522 L53.7205,45.3522 L53.7205,39.7322 C53.6995,39.2582 53.8575,38.7942 54.1625,38.4302 C54.7905,37.7742 55.8315,37.7522 56.4875,38.3802 C56.5045,38.3962 56.5215,38.4132 56.5375,38.4302 C56.8495,38.8402 57.0045,39.3492 56.9725,39.8642 L56.9725,45.3522 L59.3135,45.3522 L59.3135,39.7322 C59.3065,39.4072 59.3745,39.0852 59.5135,38.7922 C59.7675,38.2442 60.3255,37.9032 60.9285,37.9272 C61.3855,37.9042 61.8275,38.0922 62.1275,38.4372 C62.4405,38.8482 62.5945,39.3572 62.5625,39.8722 L62.5625,45.3592 L64.9005,45.3592 L64.9005,39.2512 C64.9005,38.2382 64.6305,37.4172 64.0895,36.7882 C63.5485,36.1592 62.7475,35.8452 61.6855,35.8452" id="Fill-13" fill="#94FF85" mask="url(#mask-2)"></path>
                <path d="M73.8897,36.4486 C73.1937,36.0136 72.3867,35.7916 71.5657,35.8106 C70.7737,35.7836 69.9937,36.0096 69.3377,36.4556 C69.2767,36.4996 69.2357,36.5656 69.1767,36.6126 L69.1767,36.0676 L67.1117,36.0676 L67.1117,49.4856 L69.4697,49.4856 L69.4697,45.0146 C70.8487,45.8316 72.5687,45.8146 73.9317,44.9706 C74.5817,44.5326 75.0997,43.9266 75.4317,43.2166 C76.1537,41.6186 76.1537,39.7866 75.4317,38.1886 C75.0907,37.4776 74.5597,36.8756 73.8967,36.4486 M73.2717,42.1366 C73.1347,42.5376 72.8867,42.8906 72.5557,43.1556 C72.1977,43.4186 71.7607,43.5526 71.3167,43.5346 C70.8727,43.5576 70.4327,43.4346 70.0657,43.1826 C69.7427,42.9316 69.5067,42.5856 69.3917,42.1926 C69.1177,41.2256 69.1177,40.2016 69.3917,39.2336 C69.5057,38.8456 69.7347,38.4996 70.0487,38.2446 C70.3917,37.9966 70.8087,37.8726 71.2317,37.8926 C71.6907,37.8736 72.1427,38.0076 72.5167,38.2736 C72.8587,38.5366 73.1177,38.8936 73.2617,39.2996 C73.4277,39.7516 73.5107,40.2306 73.5057,40.7126 C73.5077,41.1976 73.4257,41.6796 73.2617,42.1366" id="Fill-14" fill="#94FF85" mask="url(#mask-2)"></path>
                <path d="M85.2925,37.4919 C84.9875,36.8929 84.4725,36.4279 83.8465,36.1849 C83.1485,35.9209 82.4075,35.7919 81.6615,35.8059 C80.5425,35.8059 79.6595,36.0499 79.0135,36.5389 C78.3815,37.0019 77.9185,37.6579 77.6935,38.4079 L79.8095,39.0799 C79.9305,38.6859 80.2155,38.3629 80.5915,38.1929 C80.9285,38.0369 81.2955,37.9539 81.6665,37.9489 C82.2845,37.9489 82.7255,38.0779 82.9905,38.3349 C83.2015,38.5829 83.3255,38.8919 83.3425,39.2169 L82.2435,39.3809 C81.6395,39.4689 81.1025,39.5639 80.6255,39.6619 C80.2105,39.7419 79.8025,39.8539 79.4045,39.9959 C78.9655,40.1429 78.5605,40.3759 78.2115,40.6799 C77.9265,40.9379 77.7065,41.2609 77.5715,41.6209 C77.4365,41.9989 77.3695,42.3979 77.3735,42.7989 C77.3685,43.2939 77.4915,43.7819 77.7305,44.2159 C77.9765,44.6489 78.3395,45.0039 78.7785,45.2399 C79.3005,45.5079 79.8825,45.6389 80.4695,45.6209 C81.1575,45.6459 81.8405,45.5029 82.4605,45.2029 C82.9135,44.9399 83.3125,44.5929 83.6355,44.1819 L83.6355,45.3639 L85.6835,45.3639 L85.6835,39.6809 C85.6855,39.2969 85.6675,38.9129 85.6295,38.5299 C85.5905,38.1679 85.4795,37.8169 85.3045,37.4969 M83.1035,42.5369 C83.0055,42.7159 82.8855,42.8799 82.7445,43.0259 C82.5425,43.2399 82.3045,43.4159 82.0405,43.5459 C81.7005,43.7079 81.3265,43.7849 80.9505,43.7739 C80.7125,43.7789 80.4765,43.7369 80.2545,43.6519 C80.0735,43.5829 79.9175,43.4619 79.8045,43.3049 C79.6965,43.1429 79.6415,42.9519 79.6485,42.7569 C79.6465,42.6099 79.6815,42.4649 79.7485,42.3349 C79.8245,42.1969 79.9305,42.0779 80.0585,41.9879 C80.2285,41.8639 80.4145,41.7629 80.6115,41.6899 C80.8395,41.6059 81.0725,41.5369 81.3095,41.4819 C81.5735,41.4209 81.9205,41.3499 82.3485,41.2719 L83.3425,41.1009 C83.3425,41.2639 83.3305,41.4429 83.3155,41.6499 C83.3045,41.9549 83.2335,42.2549 83.1085,42.5319" id="Fill-15" fill="#94FF85" mask="url(#mask-2)"></path>
                <path d="M96.3728,38.2836 C96.2578,37.8626 96.0738,37.4626 95.8278,37.1006 C95.5528,36.7056 95.1838,36.3836 94.7558,36.1626 C94.2018,35.8956 93.5908,35.7686 92.9768,35.7936 C92.1788,35.7626 91.3898,35.9696 90.7088,36.3876 C90.4378,36.5716 90.1908,36.7896 89.9758,37.0376 L89.9758,36.0606 L87.8968,36.0606 L87.8968,45.3446 L90.2698,45.3446 L90.2698,40.6296 C90.2528,40.1566 90.3188,39.6856 90.4648,39.2366 C90.5598,38.9346 90.7278,38.6616 90.9538,38.4396 C91.1358,38.2686 91.3578,38.1436 91.5988,38.0756 C91.8078,38.0156 92.0238,37.9836 92.2408,37.9806 C92.6548,37.9546 93.0638,38.0726 93.3998,38.3156 C93.6678,38.5356 93.8718,38.8246 93.9878,39.1506 C94.1078,39.4706 94.1798,39.8056 94.2028,40.1456 C94.2278,40.4756 94.2398,40.7436 94.2398,40.9566 L94.2398,45.3546 L96.6118,45.3546 L96.6118,40.1456 C96.6118,39.9916 96.6118,39.7446 96.5778,39.4126 C96.5488,39.0326 96.4828,38.6576 96.3798,38.2906" id="Fill-16" fill="#94FF85" mask="url(#mask-2)"></path>
                <polygon id="Fill-17" fill="#94FF85" mask="url(#mask-2)" points="104.7581 36.0675 102.3321 42.3905 99.8911 36.0675 97.4651 36.0675 101.2131 45.2835 99.6831 49.4865 101.8531 49.4865 107.0991 36.0675"></polygon>
                <path d="M10.6674,29.6661074 C8.5514,29.6681 6.4584,29.2311 4.5204,28.3831 L5.4974,26.1431 C12.0404,29.1411 19.7754,26.2671 22.7744,19.7241 C25.7724,13.1801 22.8984,5.4451 16.3554,2.4471 C16.1974,2.3751 16.0394,2.3061 15.8794,2.2401 L16.8564,0.0001 C24.6934,3.4101 28.2824,12.5281 24.8724,20.3651 C22.4124,26.0181 16.8324,29.6721 10.6674,29.6661074" id="Fill-18" fill="#004899" mask="url(#mask-2)"></path>
                <path d="M10.6894,3.5034 C16.5934,3.5034 21.3784,8.2894 21.3784,14.1924 C21.3784,20.0964 16.5934,24.8824 10.6894,24.8824 C4.7854,24.8824 0.0004,20.0964 0.0004,14.1924 C0.0004,8.2894 4.7854,3.5034 10.6894,3.5034" id="Fill-19" fill="#94FF85" mask="url(#mask-2)"></path>
            </g>
        </g>
    </g>
</svg>