<?xml version="1.0" encoding="UTF-8"?>
<svg xmlns="http://www.w3.org/2000/svg" width="163.817" height="43.404" viewBox="0 0 163.817 43.404">
  <g id="Group_3085" data-name="Group 3085" transform="translate(-206.241 -136.198)">
    <g id="Group_182" data-name="Group 182" transform="translate(206.241 136.198)">
      <path id="Path_200" data-name="Path 200" d="M206.241,154.015V136.908h5.682v17.107c0,5.5,2.931,7.955,7.059,7.955,4.007,0,7.057-2.572,7.057-7.955V136.908h5.683v17.107c0,5.383,2.99,7.955,7,7.955,4.127,0,7.057-2.452,7.057-7.955V136.908h5.683v17.107c0,9.031-5.264,13.219-12.2,13.219-4.606,0-8.375-2.034-10.409-5.862-2.033,3.828-5.862,5.862-10.408,5.862C211.505,167.234,206.241,163.047,206.241,154.015Z" transform="translate(-206.241 -136.131)" fill="#59b486"></path>
      <path id="Path_201" data-name="Path 201" d="M276.024,158.269h-3.039c-1.734,2.572-4.427,3.769-8.254,3.769-5.145,0-9.092-2.931-9.929-8.2H275.01a20.178,20.178,0,0,1-.112-2.093,18.145,18.145,0,0,1,2.594-9.562,15.5,15.5,0,0,0-12.762-5.989c-9.331,0-15.912,6.579-15.912,15.551S255.4,167.3,264.731,167.3c5.487,0,10.021-2.248,12.786-5.951A17.022,17.022,0,0,1,276.024,158.269Zm-11.293-16.808c4.785,0,8.673,2.573,9.81,7.3H254.98C256.116,144.093,259.826,141.461,264.731,141.461Z" transform="translate(-202.202 -136.198)" fill="#59b486"></path>
      <path id="Path_202" data-name="Path 202" d="M274.662,151.749c0-8.972,6.579-15.551,15.91-15.551s15.791,6.579,15.791,15.551v2.093h-25.72c.838,5.264,4.786,8.2,9.929,8.2,3.828,0,6.52-1.2,8.254-3.769h6.281c-2.273,5.5-7.656,9.033-14.535,9.033C281.241,167.3,274.662,160.722,274.662,151.749Zm25.72-2.99c-1.136-4.725-5.024-7.3-9.81-7.3-4.9,0-8.613,2.632-9.75,7.3Z" transform="translate(-199.751 -136.198)" fill="#606f74"></path>
      <path id="Path_203" data-name="Path 203" d="M303.762,157.97H309.5c.119,2.452,2.392,4.187,6.52,4.187,4.307,0,6.52-1.854,6.52-4.187,0-2.812-3.111-3.171-6.819-3.649-5.145-.658-11.365-1.615-11.365-8.373,0-5.8,4.546-9.75,11.6-9.75s11.425,4.007,11.545,9.092h-5.623c-.18-2.273-2.273-3.948-5.862-3.948-3.769,0-5.922,1.794-5.922,4.128,0,2.812,3.111,3.11,6.76,3.589,5.144.658,11.425,1.615,11.425,8.373,0,5.982-4.846,9.87-12.262,9.87S303.942,163.354,303.762,157.97Z" transform="translate(-196.99 -136.198)" fill="#606f74"></path>
    </g>
    <g id="Group_183" data-name="Group 183" transform="translate(338.644 136.275)">
      <path id="Path_204" data-name="Path 204" d="M328.239,169.816h5.749c1.364,3.379,4.8,4.86,9.069,4.86,5.987,0,9.958-2.844,9.958-10.49v-3.38c-2.015,3.794-6.1,6.046-11.024,6.046-7.587,0-14.818-5.216-14.818-15.174,0-8.89,6.52-15.41,15.766-15.41s15.648,6.223,15.648,15.647v12.032c0,11.263-6.876,15.649-15.529,15.649C335.886,179.6,330.255,176.572,328.239,169.816Zm24.776-18.137c0-5.926-4.03-10.194-10.076-10.194s-10.076,4.268-10.076,10.194,4.03,9.9,10.076,9.9S353.015,157.606,353.015,151.678Z" transform="translate(-327.173 -136.268)" fill="#606f74"></path>
    </g>
  </g>
</svg>
